# xmcd CD database file
#
# Track frame offsets:
#	150
#	8303
#	19285
#	22541
#	31656
#	41980
#	55180
#	58125
#	68795
#	74498
#	84766
#	95184
#	103175
#	110167
#	119912
#	129941
#	140738
#	156137
#	170788
#	179897
#
# Disc length: 2619 seconds
#
# Revision: 0
# Processed by: cddbd v1.5.2PL0 Copyright (c) Steve Scherf et al.
# Submitted via: CDex 1.70beta2
#
DISCID=200a3914
DTITLE=Matthew Shipp, William Parker, Beans and HPrizm - Knives From Heaven
DYEAR=2011
DGENRE=Jazz
TTITLE0=Terra Cotta
TTITLE1=Half Amazed A/B
TTITLE2=Document 6B
TTITLE3=Rainstick Streets Aglow
TTITLE4=This Is For My Brother The Wind
TTITLE5=Going To Another Place
TTITLE6=Might Be
TTITLE7=Deadpan Stare
TTITLE8=Rockers HiFi
TTITLE9=Ornate
TTITLE10=Non Sexorexia
TTITLE11=In This And All Worlds (Featuring Nedelka Prescod)
TTITLE12=And Then A Voice Says
TTITLE13=Alloys
TTITLE14=The Arabic Cowboy John Clint Ameer
TTITLE15=Moorish Waltz
TTITLE16=Reeds
TTITLE17=2Piece
TTITLE18=Hammered Into Space
TTITLE19=Hidden Track
EXTD=YEAR: 2011
EXTT0=
EXTT1=
EXTT2=
EXTT3=
EXTT4=
EXTT5=
EXTT6=
EXTT7=
EXTT8=
EXTT9=
EXTT10=
EXTT11=
EXTT12=
EXTT13=
EXTT14=
EXTT15=
EXTT16=
EXTT17=
EXTT18=
EXTT19=
PLAYORDER=
